<svg width="178" height="50" viewBox="0 0 178 50" fill="none" xmlns="http://www.w3.org/2000/svg">
<path d="M28.9561 33.1571L23.3382 36.2906C22.7916 36.6003 22.603 37.2927 22.9235 37.8211C23.2251 38.3312 23.9792 38.5316 24.507 38.2218L29.5404 35.4162L34.5738 38.2218C34.7436 38.313 34.9509 38.3677 35.1583 38.3677C35.573 38.3677 35.95 38.149 36.1575 37.8028C36.478 37.2744 36.2894 36.5822 35.7428 36.2725L30.1249 33.1389C29.7667 32.9566 29.3143 32.9566 28.9561 33.1571Z" fill="#DCD42A"/>
<path d="M47.5254 31.6429V25.3757C47.5254 25.2482 47.4877 25.1207 47.4499 24.9931C47.5066 24.8656 47.5254 24.7381 47.5254 24.5923V18.3434C47.5254 17.9425 47.2992 17.5781 46.941 17.3778L41.9075 14.572V8.90603C41.9075 8.50523 41.6813 8.14084 41.3232 7.94045L35.9692 4.95258C35.8938 4.87971 35.7996 4.80683 35.7053 4.75218L30.1252 1.61856C29.767 1.41816 29.3145 1.41816 28.9752 1.61856L23.8476 4.4789L18.701 1.61856C18.3428 1.41816 17.8903 1.41816 17.5511 1.61856L11.9332 4.75218C11.8012 4.82505 11.6881 4.91615 11.5939 5.04368L6.1834 8.04975C5.8252 8.25017 5.59898 8.61453 5.59898 9.01534V14.572L0.584406 17.396C0.226222 17.5781 0 17.9607 0 18.3616V24.6106C0 24.7381 0.0377036 24.8656 0.0754073 24.9931C0.0188518 25.1207 0 25.2482 0 25.3939V31.6611C0 32.0619 0.226222 32.4263 0.584406 32.6267L5.61784 35.4325V41.0984C5.61784 41.4992 5.84406 41.8637 6.20224 42.0639L11.5562 45.0519C11.6316 45.1247 11.7258 45.1976 11.8201 45.2523L17.438 48.3859C17.6076 48.477 17.815 48.5316 18.0223 48.5316C18.2297 48.5316 18.4181 48.477 18.6067 48.3859L23.7345 45.5256L28.8622 48.3859C29.0318 48.477 29.2392 48.5316 29.4465 48.5316C29.6539 48.5316 29.8424 48.477 30.031 48.3859L35.6488 45.2523C35.7808 45.1794 35.8938 45.0884 35.9881 44.9607L41.3797 41.9547C41.7379 41.7542 41.9642 41.39 41.9642 40.9891V35.4325L46.9976 32.6267C47.318 32.4263 47.5254 32.0438 47.5254 31.6429ZM35.7242 30.6226C35.1963 30.3312 34.4423 30.5134 34.1407 31.0235C33.9898 31.2785 33.9521 31.5882 34.0276 31.8798C34.1029 32.1713 34.2915 32.4081 34.5742 32.5538L39.6076 35.3595V40.3332L35.1587 42.8292L30.1252 40.0235C29.5973 39.732 28.8622 39.9142 28.5416 40.4244C28.3909 40.6794 28.3532 40.9891 28.4285 41.2806C28.504 41.572 28.6924 41.8089 28.9752 41.9547L32.9341 44.1591L29.4088 46.1267L24.3754 43.3212C24.168 43.2117 23.9229 43.1572 23.6967 43.1935C23.4706 43.1754 23.2255 43.2117 23.018 43.3212L17.9846 46.1267L13.5356 43.6491V38.0376C13.5356 37.4182 13.0077 36.9263 12.3856 36.9263C11.7447 36.9263 11.2357 37.4364 11.2357 38.0376V42.3009L7.91776 40.4425V35.4688L12.3856 32.9911L16.8347 35.4688V41.0803C16.8347 41.6997 17.3625 42.1916 17.9846 42.1916C18.6256 42.1916 19.1346 41.6814 19.1346 41.0803V34.9951L23.1688 32.736C23.4327 32.5903 23.6213 32.3535 23.7156 32.0619C23.7909 31.7704 23.7533 31.4789 23.6025 31.2057C23.3008 30.6956 22.5467 30.4951 22.0189 30.8048L17.5321 33.3009L13.5167 31.06V25.7766L17.6831 23.4445C17.947 23.2988 18.1354 23.0619 18.2297 22.7704C18.3052 22.4789 18.2674 22.1875 18.1166 21.9141C17.815 21.4041 17.0798 21.2037 16.533 21.5134L12.2537 23.9182L7.35221 21.1854C6.82436 20.8939 6.07029 21.0762 5.76866 21.5863C5.44817 22.1145 5.63669 22.8069 6.1834 23.1166L11.2168 25.9223V31.06L6.8055 33.5194L2.31877 31.0053V26.5417L6.20224 28.7097C6.37191 28.8009 6.57928 28.8554 6.78665 28.8554C7.20139 28.8554 7.57843 28.6369 7.78579 28.2907C8.10628 27.7623 7.91776 27.07 7.37105 26.7603L2.33763 23.9547V18.9992L6.74895 16.5397L11.8389 19.3817C12.0086 19.4729 12.216 19.5275 12.4233 19.5275C12.8381 19.5275 13.2151 19.3089 13.4225 18.9628C13.743 18.4344 13.5545 17.742 13.0078 17.4323L7.91776 14.6267V9.653L12.3668 7.17526L17.4002 9.98093C17.9281 10.2724 18.6822 10.0903 18.9838 9.58012C19.1346 9.32506 19.1722 9.01534 19.0969 8.72384C19.0214 8.43234 18.833 8.1955 18.5502 8.04975L14.5913 5.8453L18.0977 3.8959L23.1312 6.70158C23.3008 6.79267 23.5082 6.84733 23.7156 6.84733C23.7533 6.84733 23.791 6.82911 23.8288 6.82911C24.0549 6.84733 24.2811 6.81089 24.4885 6.70158L29.522 3.8959L33.9709 6.37364V11.985C33.9709 12.6044 34.4988 13.0963 35.1209 13.0963C35.7618 13.0963 36.2708 12.5862 36.2708 11.985V7.72181L39.57 9.5619V14.5356L35.1209 17.0134L30.6719 14.5356V8.90603C30.6719 8.28659 30.1441 7.7947 29.522 7.7947C28.881 7.7947 28.372 8.30481 28.372 8.90603V15.0092L24.3377 17.2684C24.0737 17.4141 23.8852 17.651 23.791 17.9425C23.7156 18.2339 23.7533 18.5256 23.9041 18.7988C24.1115 19.145 24.4885 19.3635 24.9032 19.3635C25.1107 19.3635 25.2991 19.3089 25.4877 19.2178L29.9743 16.7037L33.9898 18.9445V24.2279L29.8235 26.56C29.2769 26.8697 29.0883 27.5619 29.4088 28.0903C29.6163 28.4364 29.9933 28.6551 30.408 28.6551C30.6153 28.6551 30.8039 28.6004 30.9923 28.5094L35.2906 26.1044L40.1921 28.8373C40.3617 28.9284 40.5691 28.9831 40.7764 28.9831C41.1913 28.9831 41.5683 28.7644 41.7756 28.4182C42.0961 27.8898 41.9075 27.1976 41.3609 26.8879L36.3274 24.0822V18.9445L40.7199 16.485L45.2067 18.9992V23.4628L41.3232 21.2947C40.7952 21.0032 40.0412 21.1854 39.7396 21.6956C39.4192 22.2239 39.6076 22.9162 40.1543 23.2259L45.1877 26.0316V31.0053L40.7764 33.4648L35.7242 30.6226Z" fill="#DCD42A"/>
<path d="M26.9203 23.9932C26.9957 23.7017 26.958 23.4101 26.8072 23.1369C26.5055 22.6267 25.7514 22.4263 25.2236 22.7362L20.6049 25.305C20.341 25.4507 20.1525 25.6875 20.0582 25.979C19.9828 26.2706 20.0206 26.562 20.1714 26.8353C20.3788 27.1815 20.7558 27.4001 21.1705 27.4001C21.3779 27.4001 21.5664 27.3454 21.755 27.2544L26.3735 24.6673C26.6563 24.5215 26.8449 24.2847 26.9203 23.9932Z" fill="#DCD42A"/>
<path d="M24.7161 13.0435C24.7914 12.752 24.7538 12.4605 24.603 12.1872C24.3014 11.6771 23.5662 11.4767 23.0194 11.7864L17.9859 14.592L12.9526 11.7864C12.4247 11.4949 11.6895 11.6771 11.3879 12.1872C11.0674 12.7155 11.2559 13.4078 11.8026 13.7175L17.4205 16.8511C17.5901 16.9423 17.7975 16.9969 18.0048 16.9969C18.2122 16.9969 18.4008 16.9423 18.5892 16.8511L24.2071 13.7175C24.4522 13.5718 24.6406 13.335 24.7161 13.0435Z" fill="#DCD42A"/>
<path d="M69.2288 24.9633C69.0781 24.8905 69.0781 24.7448 69.21 24.6536C70.0584 24.0889 70.5862 23.2326 70.5862 22.0302C70.5862 19.9168 69.0969 18.3682 66.1184 18.3682H59.7088C59.4825 18.3682 59.2939 18.5504 59.2939 18.769V31.2488C59.2939 31.4674 59.4825 31.6496 59.7088 31.6496H66.7216C69.5117 31.6496 71.2083 30.1011 71.2083 27.8965C71.1895 26.4755 70.4354 25.5099 69.2288 24.9633ZM62.8004 21.8115C62.8004 21.6293 62.9512 21.4654 63.1586 21.4654H65.911C66.6462 21.4654 67.0233 21.8845 67.0233 22.5221C67.0233 23.1598 66.6651 23.5788 65.7224 23.5788H63.1586C62.9702 23.5788 62.8004 23.433 62.8004 23.2326V21.8115ZM66.3257 28.5707H63.1586C62.9702 28.5707 62.8004 28.4249 62.8004 28.2245V26.5665C62.8004 26.3845 62.9512 26.2205 63.1586 26.2205H66.3257C67.2872 26.2205 67.6266 26.676 67.6266 27.3683C67.6454 28.0788 67.2872 28.5707 66.3257 28.5707Z" fill="#DCD42A"/>
<path d="M82.953 27.933C82.8399 27.7873 82.8777 27.5686 83.0661 27.4958C84.7062 26.6213 85.4603 24.9998 85.4603 23.2326C85.4603 20.591 83.839 18.3682 80.3137 18.3682H74.0172C73.7911 18.3682 73.6025 18.5504 73.6025 18.769V31.2488C73.6025 31.4674 73.7911 31.6496 74.0172 31.6496H76.6753C76.9016 31.6496 77.0902 31.4674 77.0902 31.2488V28.4432C77.0902 28.261 77.2409 28.097 77.4484 28.097H78.5417C78.7491 28.097 78.9753 28.2063 79.1073 28.3702L81.2564 31.3217C81.4072 31.5221 81.6711 31.6679 81.935 31.6679H85.3095C85.4791 31.6679 85.5922 31.4857 85.4791 31.3217L82.953 27.933ZM80.1253 25.018H77.4672C77.2786 25.018 77.109 24.8723 77.109 24.6718V21.8115C77.109 21.6293 77.2598 21.4654 77.4672 21.4654H80.1253C81.5391 21.4654 82.067 22.2305 82.067 23.2508C82.067 24.1799 81.5391 25.018 80.1253 25.018Z" fill="#DCD42A"/>
<path d="M95.8855 18.7508C95.7913 18.5321 95.5463 18.3682 95.3012 18.3682H92.6619C92.4168 18.3682 92.1718 18.5139 92.0775 18.7508L86.8178 31.2852C86.7425 31.4492 86.8744 31.6679 87.0817 31.6679H90.0792C90.3242 31.6679 90.5505 31.5221 90.6448 31.2852L91.1349 30.0464C91.2103 29.8642 91.3989 29.7185 91.6061 29.7185H96.3192C96.5264 29.7185 96.7339 29.846 96.7905 30.0464L97.2805 31.2852C97.3748 31.5039 97.6011 31.6679 97.8461 31.6679H100.844C101.051 31.6679 101.183 31.4674 101.108 31.2852L95.8855 18.7508ZM95.1314 26.6213H92.8127C92.6431 26.6213 92.53 26.4573 92.5865 26.2933L93.8495 23.0321C93.8872 22.9046 94.0569 22.9046 94.0946 23.0321L95.3388 26.2933C95.4143 26.4573 95.3012 26.6213 95.1314 26.6213Z" fill="#DCD42A"/>
<path d="M106.329 18.3682H103.652C103.425 18.3682 103.237 18.5504 103.237 18.769V31.2488C103.237 31.4674 103.425 31.6496 103.652 31.6496H106.329C106.555 31.6496 106.743 31.4674 106.743 31.2488V18.769C106.743 18.5504 106.555 18.3682 106.329 18.3682Z" fill="#DCD42A"/>
<path d="M121.938 18.3682H119.28C119.054 18.3682 118.865 18.5504 118.865 18.769V25.4552C118.865 25.5829 118.733 25.6192 118.658 25.5282L113.003 18.6961C112.852 18.4958 112.588 18.3682 112.324 18.3682H110.194C109.967 18.3682 109.779 18.5504 109.779 18.769V31.2488C109.779 31.4674 109.967 31.6496 110.194 31.6496H112.833C113.059 31.6496 113.248 31.4674 113.248 31.2488V24.5808C113.248 24.4533 113.38 24.4168 113.455 24.5079L119.11 31.3217C119.261 31.5221 119.525 31.6496 119.789 31.6496H121.919C122.146 31.6496 122.334 31.4674 122.334 31.2488V18.769C122.372 18.5504 122.165 18.3682 121.938 18.3682Z" fill="#DCD42A"/>
<path d="M130.97 23.3058C129.329 22.7592 128.689 22.4859 128.689 21.9576C128.689 21.5204 129.16 21.0467 130.366 21.0467C131.535 21.0467 132.195 21.5567 132.402 22.1215C132.515 22.4312 132.666 22.577 133.006 22.577H135.456C135.701 22.577 135.928 22.3402 135.909 22.1033C135.739 19.7167 133.496 18.0952 130.291 18.0952C127.162 18.0952 124.918 19.6802 124.918 22.2126C124.918 24.9636 127.784 25.9839 129.97 26.6762C131.629 27.2227 132.308 27.5689 132.308 28.1155C132.308 28.5162 131.893 28.9354 130.555 28.9354C129.329 28.9354 128.594 28.5345 128.349 28.079C128.142 27.7146 128.048 27.6418 127.652 27.6418H125.276C125.031 27.6418 124.805 27.8786 124.824 28.1155C125.088 30.5749 127.539 31.9049 130.649 31.9049C133.778 31.9049 136.116 30.5386 136.116 27.9515C136.116 25.0548 132.874 23.9615 130.97 23.3058Z" fill="#DCD42A"/>
<path d="M149.404 18.3682H138.15C137.923 18.3682 137.735 18.5504 137.735 18.769V21.2649C137.735 21.4836 137.923 21.6658 138.15 21.6658H141.656C141.845 21.6658 142.014 21.8115 142.014 22.012V31.2488C142.014 31.4674 142.203 31.6496 142.429 31.6496H145.106C145.332 31.6496 145.521 31.4674 145.521 31.2488V22.012C145.521 21.8298 145.671 21.6658 145.879 21.6658H149.404C149.63 21.6658 149.818 21.4836 149.818 21.2649V18.769C149.818 18.5504 149.63 18.3682 149.404 18.3682Z" fill="#DCD42A"/>
<path d="M162.112 18.3682H152.403C152.178 18.3682 151.988 18.5504 151.988 18.769V31.2488C151.988 31.4674 152.178 31.6496 152.403 31.6496H162.112C162.339 31.6496 162.527 31.4674 162.527 31.2488V28.7711C162.527 28.5524 162.339 28.3702 162.112 28.3702H155.853C155.664 28.3702 155.495 28.2245 155.495 28.024V27.0039C155.495 26.8217 155.645 26.6577 155.853 26.6577H160.868C161.094 26.6577 161.283 26.4755 161.283 26.2568V23.9977C161.283 23.7792 161.094 23.597 160.868 23.597H155.853C155.664 23.597 155.495 23.4513 155.495 23.2508V22.0302C155.495 21.848 155.645 21.684 155.853 21.684H162.112C162.339 21.684 162.527 21.5018 162.527 21.2832V18.769C162.527 18.5504 162.339 18.3682 162.112 18.3682Z" fill="#DCD42A"/>
<path d="M177.004 31.3217L174.478 27.933C174.365 27.7873 174.403 27.5686 174.591 27.4958C176.232 26.6213 176.986 24.9998 176.986 23.2326C176.986 20.591 175.365 18.3682 171.839 18.3682H165.543C165.316 18.3682 165.128 18.5504 165.128 18.769V31.2488C165.128 31.4674 165.316 31.6496 165.543 31.6496H168.201C168.428 31.6496 168.616 31.4674 168.616 31.2488V28.4432C168.616 28.261 168.766 28.097 168.973 28.097H170.068C170.275 28.097 170.5 28.2063 170.633 28.3702L172.782 31.3217C172.932 31.5221 173.197 31.6679 173.46 31.6679H176.835C177.004 31.6496 177.117 31.4674 177.004 31.3217ZM171.651 25.018H168.992C168.804 25.018 168.635 24.8723 168.635 24.6718V21.8115C168.635 21.6293 168.785 21.4654 168.992 21.4654H171.651C173.064 21.4654 173.592 22.2305 173.592 23.2508C173.592 24.1799 173.064 25.018 171.651 25.018Z" fill="#DCD42A"/>
</svg>
