<svg width="929" height="812" viewBox="0 0 929 812" fill="none" xmlns="http://www.w3.org/2000/svg">
<g filter="url(#filter0_f_435_138)">
<path fill-rule="evenodd" clip-rule="evenodd" d="M463.614 166.954C533.243 172.993 587.831 208.462 639.099 246.123C693.127 285.81 748.934 326.98 759.87 384.579C772.425 450.699 757.347 521.937 700.943 571.831C641.994 623.975 552.042 650.451 463.614 646.639C379.203 643 307.389 602.034 250.874 552.43C197.732 505.786 166.165 447.293 165.043 384.579C163.903 320.908 185.5 255.132 244.782 211.922C302.34 169.969 385.723 160.198 463.614 166.954Z" fill="url(#paint0_linear_435_138)" fill-opacity="0.25"/>
</g>
<defs>
<filter id="filter0_f_435_138" x="0" y="0" width="929" height="812" filterUnits="userSpaceOnUse" color-interpolation-filters="sRGB">
<feFlood flood-opacity="0" result="BackgroundImageFix"/>
<feBlend mode="normal" in="SourceGraphic" in2="BackgroundImageFix" result="shape"/>
<feGaussianBlur stdDeviation="82.5" result="effect1_foregroundBlur_435_138"/>
</filter>
<linearGradient id="paint0_linear_435_138" x1="363.274" y1="192.649" x2="441.142" y2="615.991" gradientUnits="userSpaceOnUse">
<stop offset="0.255208" stop-color="#35339E"/>
<stop offset="0.583248" stop-color="#51247E"/>
<stop offset="1" stop-color="#270945"/>
</linearGradient>
</defs>
</svg>
